<svg width="48" height="48" viewBox="0 0 24 24" fill="none" xmlns="http://www.w3.org/2000/svg" data-reactroot="">
<path stroke-linejoin="round" stroke-linecap="round" stroke-miterlimit="10" stroke-width="1.5" stroke="#000000" fill="none" d="M20 21C16.46 21.8 13.35 22 11 22C7.35 22 4.28 21.51 2 21C2 16.58 6.03 13 11 13C15.97 13 20 16.58 20 21Z"></path>
<path stroke-linejoin="round" stroke-linecap="round" stroke-miterlimit="10" stroke-width="1.5" stroke="#000000" fill="none" d="M11 10C13.2091 10 15 8.20914 15 6C15 3.79086 13.2091 2 11 2C8.79086 2 7 3.79086 7 6C7 8.20914 8.79086 10 11 10Z"></path>
<path stroke-linejoin="round" stroke-miterlimit="10" stroke-width="1.5" stroke="#000000" d="M17 4H23"></path>
<path stroke-linejoin="round" stroke-miterlimit="10" stroke-width="1.5" stroke="#000000" d="M20 1V7"></path>
</svg>
